<mxfile host="app.diagrams.net" modified="2020-07-24T01:03:18.162Z" agent="5.0 (Windows NT 10.0; Win64; x64) AppleWebKit/537.36 (KHTML, like Gecko) Chrome/84.0.4128.3 Safari/537.36" etag="x-fYwFv7-xZQJ3Fhw-No" version="13.4.4" type="github">
  <diagram id="si5lzZ_2gW0YOFcvzZq-" name="第 1 页">
    <mxGraphModel dx="1422" dy="719" grid="1" gridSize="10" guides="1" tooltips="1" connect="1" arrows="1" fold="1" page="1" pageScale="1" pageWidth="827" pageHeight="1169" math="0" shadow="0">
      <root>
        <mxCell id="0" />
        <mxCell id="1" parent="0" />
        <mxCell id="HEu-tbk73cDar-I869zF-1" value="Vector&amp;lt;E&amp;gt;" style="rounded=0;whiteSpace=wrap;html=1;" vertex="1" parent="1">
          <mxGeometry x="300" y="800" width="120" height="30" as="geometry" />
        </mxCell>
        <mxCell id="HEu-tbk73cDar-I869zF-2" value="&amp;lt;&amp;lt;&lt;b&gt;Interface&lt;/b&gt;&amp;gt;&amp;gt;List&amp;lt;E&amp;gt;" style="rounded=0;whiteSpace=wrap;html=1;" vertex="1" parent="1">
          <mxGeometry x="80" y="670" width="120" height="30" as="geometry" />
        </mxCell>
        <mxCell id="HEu-tbk73cDar-I869zF-3" value="" style="rounded=0;whiteSpace=wrap;html=1;" vertex="1" parent="1">
          <mxGeometry x="270" y="670" width="180" height="30" as="geometry" />
        </mxCell>
        <mxCell id="HEu-tbk73cDar-I869zF-4" value="" style="rounded=0;whiteSpace=wrap;html=1;" vertex="1" parent="1">
          <mxGeometry x="470" y="670" width="190" height="30" as="geometry" />
        </mxCell>
        <mxCell id="HEu-tbk73cDar-I869zF-5" value="" style="rounded=0;whiteSpace=wrap;html=1;" vertex="1" parent="1">
          <mxGeometry x="690" y="670" width="160" height="30" as="geometry" />
        </mxCell>
        <mxCell id="HEu-tbk73cDar-I869zF-6" value="" style="rounded=0;whiteSpace=wrap;html=1;" vertex="1" parent="1">
          <mxGeometry x="880" y="670" width="210" height="30" as="geometry" />
        </mxCell>
        <mxCell id="HEu-tbk73cDar-I869zF-7" value="" style="endArrow=classic;html=1;exitX=0.5;exitY=0;exitDx=0;exitDy=0;entryX=0.5;entryY=1;entryDx=0;entryDy=0;" edge="1" parent="1" target="HEu-tbk73cDar-I869zF-3">
          <mxGeometry width="50" height="50" relative="1" as="geometry">
            <mxPoint x="359.5799999999999" y="800" as="sourcePoint" />
            <mxPoint x="359.58" y="760" as="targetPoint" />
          </mxGeometry>
        </mxCell>
        <mxCell id="HEu-tbk73cDar-I869zF-8" value="&lt;pre style=&quot;font-size: 24px ; font-weight: 700 ; font-family: &amp;quot;consolas&amp;quot;&quot;&gt;&lt;span style=&quot;color: rgb(127 , 0 , 85)&quot;&gt;&lt;font style=&quot;font-size: 11px&quot;&gt;extends&lt;/font&gt;&lt;/span&gt;&lt;/pre&gt;" style="edgeLabel;html=1;align=center;verticalAlign=middle;resizable=0;points=[];labelBackgroundColor=none;" vertex="1" connectable="0" parent="HEu-tbk73cDar-I869zF-7">
          <mxGeometry x="0.1893" relative="1" as="geometry">
            <mxPoint as="offset" />
          </mxGeometry>
        </mxCell>
        <mxCell id="HEu-tbk73cDar-I869zF-9" value="" style="endArrow=block;endSize=10;endFill=0;shadow=0;strokeWidth=1;rounded=0;edgeStyle=elbowEdgeStyle;elbow=vertical;exitX=0.25;exitY=0;exitDx=0;exitDy=0;dashed=1;" edge="1" parent="1" source="HEu-tbk73cDar-I869zF-1">
          <mxGeometry width="160" relative="1" as="geometry">
            <mxPoint x="255" y="802" as="sourcePoint" />
            <mxPoint x="145" y="700" as="targetPoint" />
          </mxGeometry>
        </mxCell>
        <mxCell id="HEu-tbk73cDar-I869zF-10" value="&lt;pre style=&quot;font-size: 24px ; font-weight: 700 ; font-family: &amp;quot;consolas&amp;quot;&quot;&gt;&lt;span style=&quot;color: rgb(127 , 0 , 85)&quot;&gt;&lt;font style=&quot;font-size: 11px&quot;&gt;implements&lt;/font&gt;&lt;/span&gt;&lt;/pre&gt;" style="edgeLabel;html=1;align=center;verticalAlign=middle;resizable=0;points=[];labelBackgroundColor=none;" vertex="1" connectable="0" parent="HEu-tbk73cDar-I869zF-9">
          <mxGeometry x="0.0456" relative="1" as="geometry">
            <mxPoint x="9" as="offset" />
          </mxGeometry>
        </mxCell>
        <mxCell id="HEu-tbk73cDar-I869zF-11" value="" style="endArrow=block;endSize=10;endFill=0;shadow=0;strokeWidth=1;rounded=0;edgeStyle=elbowEdgeStyle;elbow=vertical;entryX=0.5;entryY=1;entryDx=0;entryDy=0;dashed=1;" edge="1" parent="1" target="HEu-tbk73cDar-I869zF-4">
          <mxGeometry width="160" relative="1" as="geometry">
            <mxPoint x="380" y="800" as="sourcePoint" />
            <mxPoint x="480" y="700" as="targetPoint" />
          </mxGeometry>
        </mxCell>
        <mxCell id="HEu-tbk73cDar-I869zF-12" value="&lt;pre style=&quot;font-size: 24px ; font-weight: 700 ; font-family: &amp;quot;consolas&amp;quot;&quot;&gt;&lt;span style=&quot;color: rgb(127 , 0 , 85)&quot;&gt;&lt;font style=&quot;font-size: 11px&quot;&gt;implements&lt;/font&gt;&lt;/span&gt;&lt;/pre&gt;" style="edgeLabel;html=1;align=center;verticalAlign=middle;resizable=0;points=[];labelBackgroundColor=none;" vertex="1" connectable="0" parent="HEu-tbk73cDar-I869zF-11">
          <mxGeometry x="-0.0627" relative="1" as="geometry">
            <mxPoint as="offset" />
          </mxGeometry>
        </mxCell>
        <mxCell id="HEu-tbk73cDar-I869zF-13" value="" style="endArrow=block;endSize=10;endFill=0;shadow=0;strokeWidth=1;rounded=0;edgeStyle=elbowEdgeStyle;elbow=vertical;entryX=0.5;entryY=1;entryDx=0;entryDy=0;dashed=1;" edge="1" parent="1" target="HEu-tbk73cDar-I869zF-5">
          <mxGeometry width="160" relative="1" as="geometry">
            <mxPoint x="400" y="800" as="sourcePoint" />
            <mxPoint x="607.9999999999998" y="700" as="targetPoint" />
            <Array as="points">
              <mxPoint x="580" y="760" />
            </Array>
          </mxGeometry>
        </mxCell>
        <mxCell id="HEu-tbk73cDar-I869zF-14" value="&lt;pre style=&quot;font-size: 24px ; font-weight: 700 ; font-family: &amp;quot;consolas&amp;quot;&quot;&gt;&lt;span style=&quot;color: rgb(127 , 0 , 85)&quot;&gt;&lt;font style=&quot;font-size: 11px&quot;&gt;implements&lt;/font&gt;&lt;/span&gt;&lt;/pre&gt;" style="edgeLabel;html=1;align=center;verticalAlign=middle;resizable=0;points=[];labelBackgroundColor=none;" vertex="1" connectable="0" parent="HEu-tbk73cDar-I869zF-13">
          <mxGeometry x="-0.2354" y="-1" relative="1" as="geometry">
            <mxPoint as="offset" />
          </mxGeometry>
        </mxCell>
        <mxCell id="HEu-tbk73cDar-I869zF-15" value="" style="endArrow=block;endSize=10;endFill=0;shadow=0;strokeWidth=1;rounded=0;edgeStyle=elbowEdgeStyle;elbow=vertical;entryX=0.5;entryY=1;entryDx=0;entryDy=0;exitX=1;exitY=0;exitDx=0;exitDy=0;dashed=1;" edge="1" parent="1" source="HEu-tbk73cDar-I869zF-1" target="HEu-tbk73cDar-I869zF-6">
          <mxGeometry width="160" relative="1" as="geometry">
            <mxPoint x="410" y="800" as="sourcePoint" />
            <mxPoint x="777" y="710" as="targetPoint" />
            <Array as="points">
              <mxPoint x="600" y="770" />
            </Array>
          </mxGeometry>
        </mxCell>
        <mxCell id="HEu-tbk73cDar-I869zF-16" value="&lt;pre style=&quot;font-size: 24px ; font-weight: 700 ; font-family: &amp;quot;consolas&amp;quot;&quot;&gt;&lt;span style=&quot;color: rgb(127 , 0 , 85)&quot;&gt;&lt;font style=&quot;font-size: 11px&quot;&gt;implements&lt;/font&gt;&lt;/span&gt;&lt;/pre&gt;" style="edgeLabel;html=1;align=center;verticalAlign=middle;resizable=0;points=[];labelBackgroundColor=none;" vertex="1" connectable="0" parent="HEu-tbk73cDar-I869zF-15">
          <mxGeometry x="0.4397" relative="1" as="geometry">
            <mxPoint as="offset" />
          </mxGeometry>
        </mxCell>
        <mxCell id="HEu-tbk73cDar-I869zF-17" value="&lt;span style=&quot;font-size: 12px ; font-weight: 400&quot;&gt;&amp;lt;&lt;/span&gt;&lt;span style=&quot;font-size: 12px&quot;&gt;Abstract&lt;/span&gt;&lt;span style=&quot;font-size: 12px ; font-weight: 400&quot;&gt;&amp;gt;Abstract&lt;/span&gt;&lt;span style=&quot;font-size: 12px ; font-weight: 400&quot;&gt;List&amp;lt;E&amp;gt;&lt;/span&gt;" style="text;strokeColor=none;fillColor=none;html=1;fontSize=24;fontStyle=1;verticalAlign=middle;align=center;" vertex="1" parent="1">
          <mxGeometry x="280" y="670" width="160" height="20" as="geometry" />
        </mxCell>
        <mxCell id="HEu-tbk73cDar-I869zF-18" value="&lt;span style=&quot;font-size: 12px ; font-weight: 400&quot;&gt;&amp;lt;&amp;lt;&lt;/span&gt;&lt;span style=&quot;font-size: 12px&quot;&gt;Interface&lt;/span&gt;&lt;span style=&quot;font-size: 12px ; font-weight: 400&quot;&gt;&amp;gt;&amp;gt;RandomAccess&lt;/span&gt;" style="text;strokeColor=none;fillColor=none;html=1;fontSize=24;fontStyle=1;verticalAlign=middle;align=center;" vertex="1" parent="1">
          <mxGeometry x="485" y="670" width="160" height="20" as="geometry" />
        </mxCell>
        <mxCell id="HEu-tbk73cDar-I869zF-19" value="&lt;span style=&quot;color: rgb(0 , 0 , 0) ; font-family: &amp;#34;helvetica&amp;#34; ; font-size: 12px ; font-style: normal ; font-weight: 400 ; letter-spacing: normal ; text-align: center ; text-indent: 0px ; text-transform: none ; word-spacing: 0px ; background-color: rgb(248 , 249 , 250) ; display: inline ; float: none&quot;&gt;&amp;lt;&amp;lt;&lt;/span&gt;&lt;span style=&quot;color: rgb(0 , 0 , 0) ; font-family: &amp;#34;helvetica&amp;#34; ; font-size: 12px ; font-style: normal ; letter-spacing: normal ; text-align: center ; text-indent: 0px ; text-transform: none ; word-spacing: 0px ; background-color: rgb(248 , 249 , 250) ; display: inline ; float: none&quot;&gt;&lt;b&gt;Interface&lt;/b&gt;&lt;/span&gt;&lt;span style=&quot;color: rgb(0 , 0 , 0) ; font-family: &amp;#34;helvetica&amp;#34; ; font-size: 12px ; font-style: normal ; font-weight: 400 ; letter-spacing: normal ; text-align: center ; text-indent: 0px ; text-transform: none ; word-spacing: 0px ; background-color: rgb(248 , 249 , 250) ; display: inline ; float: none&quot;&gt;&amp;gt;&amp;gt;Cloneable&lt;/span&gt;" style="text;whiteSpace=wrap;html=1;" vertex="1" parent="1">
          <mxGeometry x="700" y="670" width="140" height="30" as="geometry" />
        </mxCell>
        <mxCell id="HEu-tbk73cDar-I869zF-20" value="&lt;span style=&quot;color: rgb(0 , 0 , 0) ; font-family: &amp;#34;helvetica&amp;#34; ; font-size: 12px ; font-style: normal ; font-weight: 400 ; letter-spacing: normal ; text-align: center ; text-indent: 0px ; text-transform: none ; word-spacing: 0px ; background-color: rgb(248 , 249 , 250) ; display: inline ; float: none&quot;&gt;&amp;lt;&amp;lt;&lt;/span&gt;&lt;span style=&quot;color: rgb(0 , 0 , 0) ; font-family: &amp;#34;helvetica&amp;#34; ; font-size: 12px ; font-style: normal ; letter-spacing: normal ; text-align: center ; text-indent: 0px ; text-transform: none ; word-spacing: 0px ; background-color: rgb(248 , 249 , 250) ; display: inline ; float: none&quot;&gt;&lt;b&gt;Interface&lt;/b&gt;&lt;/span&gt;&lt;span style=&quot;color: rgb(0 , 0 , 0) ; font-family: &amp;#34;helvetica&amp;#34; ; font-size: 12px ; font-style: normal ; font-weight: 400 ; letter-spacing: normal ; text-align: center ; text-indent: 0px ; text-transform: none ; word-spacing: 0px ; background-color: rgb(248 , 249 , 250) ; display: inline ; float: none&quot;&gt;&amp;gt;&amp;gt;java.io.Serializable&lt;/span&gt;" style="text;whiteSpace=wrap;html=1;" vertex="1" parent="1">
          <mxGeometry x="900" y="670" width="200" height="30" as="geometry" />
        </mxCell>
        <mxCell id="HEu-tbk73cDar-I869zF-21" value="" style="rounded=0;whiteSpace=wrap;html=1;" vertex="1" parent="1">
          <mxGeometry x="270" y="590" width="180" height="30" as="geometry" />
        </mxCell>
        <mxCell id="HEu-tbk73cDar-I869zF-22" value="&lt;span style=&quot;font-size: 12px ; font-weight: 400&quot;&gt;&amp;lt;&lt;/span&gt;&lt;span style=&quot;font-size: 12px&quot;&gt;Abstract&lt;/span&gt;&lt;span style=&quot;font-size: 12px ; font-weight: 400&quot;&gt;&amp;gt;AbstractConllection&lt;/span&gt;&lt;span style=&quot;font-size: 12px ; font-weight: 400&quot;&gt;&amp;lt;E&amp;gt;&lt;/span&gt;" style="text;strokeColor=none;fillColor=none;html=1;fontSize=24;fontStyle=1;verticalAlign=middle;align=center;" vertex="1" parent="1">
          <mxGeometry x="280" y="590" width="160" height="20" as="geometry" />
        </mxCell>
        <mxCell id="HEu-tbk73cDar-I869zF-23" value="" style="endArrow=classic;html=1;exitX=0.5;exitY=0;exitDx=0;exitDy=0;" edge="1" parent="1">
          <mxGeometry width="50" height="50" relative="1" as="geometry">
            <mxPoint x="359.5799999999999" y="670" as="sourcePoint" />
            <mxPoint x="360" y="620" as="targetPoint" />
          </mxGeometry>
        </mxCell>
        <mxCell id="HEu-tbk73cDar-I869zF-24" value="&lt;pre style=&quot;font-size: 24px ; font-weight: 700 ; font-family: &amp;quot;consolas&amp;quot;&quot;&gt;&lt;span style=&quot;color: rgb(127 , 0 , 85)&quot;&gt;&lt;font style=&quot;font-size: 11px&quot;&gt;extends&lt;/font&gt;&lt;/span&gt;&lt;/pre&gt;" style="edgeLabel;html=1;align=center;verticalAlign=middle;resizable=0;points=[];labelBackgroundColor=none;" vertex="1" connectable="0" parent="HEu-tbk73cDar-I869zF-23">
          <mxGeometry x="-0.1391" relative="1" as="geometry">
            <mxPoint as="offset" />
          </mxGeometry>
        </mxCell>
        <mxCell id="HEu-tbk73cDar-I869zF-25" value="" style="endArrow=classic;html=1;exitX=0.5;exitY=0;exitDx=0;exitDy=0;dashed=1;" edge="1" parent="1">
          <mxGeometry width="50" height="50" relative="1" as="geometry">
            <mxPoint x="359.5799999999999" y="590" as="sourcePoint" />
            <mxPoint x="360" y="540" as="targetPoint" />
          </mxGeometry>
        </mxCell>
        <mxCell id="HEu-tbk73cDar-I869zF-26" value="&lt;pre style=&quot;font-size: 24px; font-weight: 700; font-family: consolas;&quot;&gt;&lt;span style=&quot;color: rgb(127 , 0 , 85)&quot;&gt;&lt;font style=&quot;font-size: 11px&quot;&gt;implements&lt;/font&gt;&lt;/span&gt;&lt;/pre&gt;" style="edgeLabel;html=1;align=center;verticalAlign=middle;resizable=0;points=[];labelBackgroundColor=none;" vertex="1" connectable="0" parent="HEu-tbk73cDar-I869zF-25">
          <mxGeometry x="-0.1379" y="1" relative="1" as="geometry">
            <mxPoint as="offset" />
          </mxGeometry>
        </mxCell>
        <mxCell id="HEu-tbk73cDar-I869zF-27" value="" style="rounded=0;whiteSpace=wrap;html=1;" vertex="1" parent="1">
          <mxGeometry x="270" y="510" width="180" height="30" as="geometry" />
        </mxCell>
        <mxCell id="HEu-tbk73cDar-I869zF-28" value="&lt;span style=&quot;font-size: 12px ; font-weight: 400&quot;&gt;&amp;lt;&amp;lt;&lt;/span&gt;&lt;span style=&quot;font-size: 12px&quot;&gt;Interface&lt;/span&gt;&lt;span style=&quot;font-size: 12px ; font-weight: 400&quot;&gt;&amp;gt;&amp;gt;&lt;/span&gt;&lt;span style=&quot;font-size: 12px ; font-weight: 400&quot;&gt;Conllection&lt;/span&gt;&lt;span style=&quot;font-size: 12px ; font-weight: 400&quot;&gt;&amp;lt;E&amp;gt;&lt;/span&gt;" style="text;strokeColor=none;fillColor=none;html=1;fontSize=24;fontStyle=1;verticalAlign=middle;align=center;" vertex="1" parent="1">
          <mxGeometry x="280" y="510" width="160" height="20" as="geometry" />
        </mxCell>
        <mxCell id="HEu-tbk73cDar-I869zF-29" value="" style="endArrow=classic;html=1;exitX=0.5;exitY=0;exitDx=0;exitDy=0;" edge="1" parent="1">
          <mxGeometry width="50" height="50" relative="1" as="geometry">
            <mxPoint x="359.5799999999999" y="510" as="sourcePoint" />
            <mxPoint x="360" y="460" as="targetPoint" />
          </mxGeometry>
        </mxCell>
        <mxCell id="HEu-tbk73cDar-I869zF-30" value="&lt;pre style=&quot;font-size: 24px ; font-weight: 700 ; font-family: &amp;quot;consolas&amp;quot;&quot;&gt;&lt;span style=&quot;color: rgb(127 , 0 , 85)&quot;&gt;&lt;font style=&quot;font-size: 11px&quot;&gt;extends&lt;/font&gt;&lt;/span&gt;&lt;/pre&gt;" style="edgeLabel;html=1;align=center;verticalAlign=middle;resizable=0;points=[];labelBackgroundColor=none;" vertex="1" connectable="0" parent="HEu-tbk73cDar-I869zF-29">
          <mxGeometry x="-0.0845" relative="1" as="geometry">
            <mxPoint as="offset" />
          </mxGeometry>
        </mxCell>
        <mxCell id="HEu-tbk73cDar-I869zF-31" value="" style="rounded=0;whiteSpace=wrap;html=1;" vertex="1" parent="1">
          <mxGeometry x="270" y="430" width="180" height="30" as="geometry" />
        </mxCell>
        <mxCell id="HEu-tbk73cDar-I869zF-32" value="&lt;span style=&quot;font-size: 12px ; font-weight: 400&quot;&gt;&amp;lt;&amp;lt;&lt;/span&gt;&lt;span style=&quot;font-size: 12px&quot;&gt;Interface&lt;/span&gt;&lt;span style=&quot;font-size: 12px ; font-weight: 400&quot;&gt;&amp;gt;&amp;gt;Iterable&lt;/span&gt;&lt;span style=&quot;font-size: 12px ; font-weight: 400&quot;&gt;&amp;lt;E&amp;gt;&lt;/span&gt;" style="text;strokeColor=none;fillColor=none;html=1;fontSize=24;fontStyle=1;verticalAlign=middle;align=center;" vertex="1" parent="1">
          <mxGeometry x="280" y="430" width="160" height="20" as="geometry" />
        </mxCell>
      </root>
    </mxGraphModel>
  </diagram>
</mxfile>
